<?xml version="1.0" standalone="no"?>
<!DOCTYPE svg PUBLIC "-//W3C//DTD SVG 20010904//EN"
 "http://www.w3.org/TR/2001/REC-SVG-20010904/DTD/svg10.dtd">
<svg version="1.0" xmlns="http://www.w3.org/2000/svg"
 width="648.000000pt" height="648.000000pt" viewBox="0 0 648.000000 648.000000"
 preserveAspectRatio="xMidYMid meet">
<metadata>
Created by potrace 1.14, written by Peter Selinger 2001-2017
</metadata>
<g transform="translate(0.000000,648.000000) scale(0.100000,-0.100000)"
fill="#000000" stroke="none">
<path d="M3917 6324 c-8 -8 -143 -15 -337 -19 -171 -3 -315 -8 -525 -20 -66
-4 -187 -14 -250 -21 -22 -2 -60 -7 -85 -9 -25 -3 -61 -7 -80 -9 -19 -3 -60
-8 -90 -12 -30 -3 -64 -8 -75 -10 -11 -3 -40 -7 -65 -10 -60 -7 -91 -12 -115
-17 -11 -3 -40 -8 -65 -11 -55 -7 -415 -82 -415 -86 0 -1 -11 -4 -25 -7 -39
-7 -55 -11 -55 -13 0 -1 -9 -3 -20 -5 -90 -17 -472 -146 -593 -202 -132 -59
-233 -110 -309 -155 -94 -54 -241 -153 -258 -172 -5 -6 -30 -27 -55 -46 -190
-149 -368 -399 -442 -625 -49 -145 -58 -223 -53 -450 4 -185 6 -222 20 -390 7
-93 11 -125 31 -260 22 -143 23 -147 29 -175 4 -14 8 -32 9 -40 13 -83 75
-316 118 -444 132 -397 303 -743 557 -1131 36 -55 68 -102 71 -105 3 -3 27
-35 53 -72 26 -36 54 -73 62 -82 8 -8 15 -17 15 -20 0 -12 202 -257 325 -395
100 -114 417 -422 541 -528 51 -43 138 -119 148 -128 116 -107 478 -321 626
-369 25 -8 65 -22 90 -31 25 -9 52 -19 60 -21 8 -2 49 -12 90 -23 41 -11 76
-18 78 -16 2 2 16 -1 30 -6 15 -6 45 -12 67 -15 22 -2 51 -7 65 -10 47 -11
399 -15 419 -4 14 7 22 7 26 0 4 -6 10 -8 15 -5 4 2 25 7 46 10 22 3 50 8 64
10 33 6 100 17 125 21 11 1 20 3 20 4 0 1 7 3 15 5 53 10 244 71 322 101 340
133 725 384 1086 707 122 109 352 356 352 378 0 5 4 9 8 9 5 0 24 21 42 48 19
26 36 49 39 52 4 3 22 28 40 55 19 28 38 52 41 55 7 6 110 171 134 215 9 17
26 46 38 65 140 234 345 763 403 1040 2 8 8 33 13 55 6 22 13 51 16 65 2 14
12 59 21 99 8 41 16 85 17 98 2 13 5 23 8 23 3 0 5 12 6 28 0 24 4 57 20 157
8 52 13 98 20 160 3 33 7 71 9 84 20 118 28 786 12 941 -4 41 -10 93 -12 115
-5 47 -15 118 -21 148 -2 12 -6 36 -9 52 -11 65 -17 93 -36 160 -48 173 -111
329 -179 440 -22 37 -40 71 -40 76 0 5 -4 9 -10 9 -5 0 -10 7 -10 15 0 8 -4
15 -8 15 -4 0 -16 14 -26 32 -29 48 -193 208 -269 262 -74 52 -252 146 -279
146 -9 0 -18 3 -20 8 -3 6 -129 50 -167 57 -9 2 -16 4 -16 5 0 1 -7 3 -15 5
-8 2 -73 17 -143 34 -70 18 -140 33 -155 36 -15 2 -45 6 -67 10 -22 3 -51 8
-65 10 -14 3 -45 7 -70 10 -25 3 -56 7 -70 10 -29 5 -114 15 -197 22 -72 6
-660 12 -666 7z m-1322 -688 c113 -9 253 -23 310 -33 17 -2 41 -6 55 -8 41 -6
165 -29 260 -49 14 -3 39 -8 55 -12 17 -3 62 -14 100 -25 39 -11 88 -24 110
-30 22 -6 46 -13 53 -15 7 -2 13 -3 15 -3 7 1 288 -101 308 -111 13 -8 26 -13
29 -13 23 2 352 -152 485 -227 112 -63 131 -75 149 -89 10 -9 19 -14 20 -12 0
3 12 -2 26 -11 206 -129 256 -161 258 -169 2 -5 8 -9 14 -9 8 0 200 -141 218
-160 3 -3 36 -32 74 -65 136 -117 249 -238 379 -405 122 -157 255 -409 338
-641 l38 -107 -44 -63 c-24 -35 -48 -69 -52 -74 -4 -6 -35 -46 -68 -90 -33
-44 -62 -82 -65 -85 -3 -3 -24 -27 -45 -54 -82 -102 -305 -333 -420 -436 -135
-120 -371 -305 -467 -365 -8 -5 -49 -32 -89 -59 -192 -127 -475 -274 -719
-373 -115 -47 -277 -105 -330 -118 -8 -3 -53 -16 -100 -30 -47 -14 -94 -27
-105 -30 -11 -2 -67 -15 -125 -29 -115 -26 -196 -42 -265 -50 -16 -2 -41 -6
-55 -9 -14 -4 -50 -9 -81 -12 -31 -3 -66 -7 -76 -9 -138 -27 -680 -27 -923 -1
-83 9 -126 15 -146 20 -11 2 -45 7 -75 11 -94 11 -92 9 -137 151 -55 171 -113
396 -126 483 -2 14 -7 39 -10 55 -21 113 -26 137 -25 143 1 4 1 9 -1 12 -3 9
-15 105 -25 210 -18 170 -22 448 -11 640 8 130 10 154 20 233 3 26 8 68 11 95
6 46 11 76 19 117 2 11 11 58 20 105 18 102 23 127 31 160 3 14 8 39 10 55 3
17 12 57 21 90 8 33 16 70 19 83 2 13 9 37 14 55 6 18 27 84 47 147 45 145 98
276 164 410 60 124 82 164 93 168 4 2 7 9 7 15 0 13 79 130 164 242 58 76 335
365 350 365 4 0 13 6 21 13 14 14 106 15 280 3z"/>
<path d="M3183 4698 c-63 -62 -186 -183 -273 -268 -87 -85 -243 -239 -348
-341 l-190 -187 1 -713 2 -714 303 -3 302 -2 1 27 c0 16 0 168 0 338 l0 310
244 0 c134 0 246 -3 250 -6 5 -5 5 -48 5 -244 0 -11 0 -111 1 -222 l0 -203
335 0 334 0 1 633 c0 347 1 664 1 703 0 95 -1 97 -191 299 -57 61 -215 233
-276 301 -23 25 -151 166 -186 205 -13 14 -59 65 -103 112 -43 48 -83 87 -88
87 -5 0 -62 -51 -125 -112z"/>
</g>
</svg>
