<svg viewBox="0 0 277.38 105.43" xmlns="http://www.w3.org/2000/svg" xmlns:xlink="http://www.w3.org/1999/xlink"><clipPath id="a"><path d="m0 0h245.98v105.43h-245.98z"/></clipPath><clipPath id="b"><path d="m68.61 51.18c-3.69 3.96-7.96 7.35-12.65 10.06-12.33 7.11-26.98 9.04-40.73 5.35.68 1.55 7.23 15.9 21.96 18.73 13.05 2.5 23.07-5.85 27.25-9.33 19.17-15.99 17.08-43.43 16.73-47.23-2.36 8.36-6.66 16.05-12.55 22.43"/></clipPath><linearGradient id="c" gradientTransform="matrix(59.71 0 0 -68.93 22912.53 37830.87000000001)" gradientUnits="userSpaceOnUse" x1="-383.74" x2="-383.73" y1="547.98" y2="547.98"><stop offset="0" stop-color="#49a041"/><stop offset=".25" stop-color="#499341"/><stop offset=".64" stop-color="#498641"/><stop offset="1" stop-color="#498241"/></linearGradient><clipPath id="d"><path d="m0 0h245.98v105.43h-245.98z"/></clipPath><g clip-path="url(#a)"><path d="m51.83 38.39c-.61-.76-1.27-1.48-1.97-2.16-1.08-1.19-2.16-2.37-3.24-3.56l-4.84-5.33c-.13-.1-.3-.12-.44-.04l-11.51 11.3-.02.02s-.01.01-.01.02v17.85c0 .11.22.14.29.14h21.83s.19 0 .19-.07v-14.72c0-1.05.34-2.57-.26-3.44" fill="#4baa41"/><path d="m37.45 48.14h6.27v8.78h-6.27z" fill="#fff"/><path d="m55.92 24c2.94 1.7 8.43 4.88 12.62 10.11 8.32 10.36 7.33 23.54 6.82 27.86.72-1.85 13.71-36.23-1.06-48.58-1.85-1.55-4.38-2.96-9.86-4.1-19.71-4.09-38.45 3.53-49.24 9.21 13.76-3.63 28.41-1.65 40.72 5.5" fill="#4b8241"/></g><g clip-path="url(#b)"><path d="m19.55 23.81h59.71v68.93h-59.71z" fill="url(#c)" transform="matrix(.00942464 -.99995559 .99995559 .00942464 -9.33 107.14)"/></g><g clip-path="url(#d)"><path d="m17.18 39.89c.61-3.37 1.75-9.66 5.27-15.43 6.98-11.44 19.82-15.01 24.1-16.01-2-.05-39.06-.59-45.73 17.63-1.1 3.01-.9 5.59-.51 10.75 1.78 23.55 20.62 39.23 24.09 42.11.79.66 1.44 1.17 1.8 1.45-8.4-11.71-11.66-26.34-9.03-40.51" fill="#49a341"/></g></svg>