<?xml version="1.0" encoding="utf-8"?>
<!-- Generator: Adobe Illustrator 26.5.0, SVG Export Plug-In . SVG Version: 6.00 Build 0)  -->
<svg version="1.1" id="Gruppe_21" xmlns="http://www.w3.org/2000/svg" xmlns:xlink="http://www.w3.org/1999/xlink" x="0px" y="0px"
	 viewBox="0 0 235.3 114.9" style="enable-background:new 0 0 235.3 114.9;" xml:space="preserve">
<style type="text/css">
	.st0{fill:#4BAA41;}
	.st1{fill:#FFFFFF;}
	.st2{fill:#4B8241;}
	.st3{clip-path:url(#SVGID_00000138538294127267268750000014416272738395968645_);}
	.st4{fill:url(#Rechteck_14_00000009589771330609851530000001227479997603079359_);}
	.st5{fill:#49A341;}
	.st6{clip-path:url(#SVGID_00000115513568661239062410000002955628998818572967_);}
	.st7{enable-background:new    ;}
	.st8{fill:#485550;}
	.st9{clip-path:url(#SVGID_00000039845877716639649000000010672510393391146913_);}
	.st10{fill:#4BA041;}
</style>
<g id="Gruppe_10">
	<g>
		<g>
			<g id="Gruppe_9">
				<path id="Pfad_49" class="st0" d="M51.8,30.4c-0.6-0.8-1.3-1.5-2-2.2c-1.1-1.2-2.2-2.4-3.2-3.6l-4.8-5.3c-0.1-0.1-0.3-0.1-0.4,0
					L29.8,30.6l0,0l0,0v17.8c0,0.1,0.2,0.1,0.3,0.1h21.8c0,0,0.2,0,0.2-0.1V33.8C52.1,32.8,52.4,31.3,51.8,30.4"/>
				<rect id="Rechteck_12" x="37.4" y="40.2" class="st1" width="6.3" height="8.8"/>
				<path id="Pfad_50" class="st2" d="M55.9,16c2.9,1.7,8.4,4.9,12.6,10.1c8.3,10.4,7.3,23.5,6.8,27.9C76,52.2,89,17.8,74.2,5.4
					c-1.8-1.5-4.4-3-9.9-4.1C44.7-2.8,26,4.8,15.2,10.5C29,6.9,43.6,8.9,55.9,16"/>
				<g id="Gruppe_12" transform="translate(15.218 28.743)">
					<g>
						<g>
							<defs>
								<path id="SVGID_1_" d="M53.4,14.4c-3.7,4-8,7.4-12.7,10.1c-12.3,7.1-27,9-40.7,5.3c0.7,1.6,7.2,15.9,22,18.7
									c13,2.6,23-5.8,27.2-9.3C68.4,23.3,66.3-4.2,65.9-8C63.6,0.4,59.3,8.1,53.4,14.4"/>
							</defs>
							<clipPath id="SVGID_00000062908329528165101540000005991818841011224742_">
								<use xlink:href="#SVGID_1_"  style="overflow:visible;"/>
							</clipPath>
							
								<g id="Gruppe_11" transform="translate(0)" style="clip-path:url(#SVGID_00000062908329528165101540000005991818841011224742_);">
								
									<linearGradient id="Rechteck_14_00000124133893167880251130000009179535725628221848_" gradientUnits="userSpaceOnUse" x1="-784.2756" y1="-5.0396" x2="-784.7914" y2="-5.9894" gradientTransform="matrix(0.5596 -59.7064 68.927 0.646 857.6082 -46818.5312)">
									<stop  offset="0" style="stop-color:#49A041"/>
									<stop  offset="0.507" style="stop-color:#499341"/>
									<stop  offset="0.8906" style="stop-color:#498641"/>
									<stop  offset="1" style="stop-color:#498241"/>
								</linearGradient>
								<polygon id="Rechteck_14" style="fill:url(#Rechteck_14_00000124133893167880251130000009179535725628221848_);" points="
									-0.6,51.1 0,-8.6 68.9,-8 68.4,51.7 								"/>
							</g>
						</g>
					</g>
				</g>
				<path id="Pfad_52" class="st5" d="M17.2,31.9c0.6-3.4,1.7-9.7,5.3-15.4c7-11.4,19.8-15,24.1-16c-2,0-39.1-0.6-45.7,17.6
					c-1.1,3-0.9,5.6-0.5,10.7c1.7,23.6,20.5,39.3,24,42.2c0.8,0.7,1.4,1.2,1.8,1.5C17.8,60.7,14.5,46.1,17.2,31.9"/>
			</g>
		</g>
	</g>
</g>
<g id="Gruppe_20">
	<g>
		<g>
			<g id="Gruppe_19">
				<g id="Gruppe_15" transform="translate(102.451)">
					<g id="Gruppe_14">
						<g>
							<g>
								<defs>
									<rect id="SVGID_00000031886491861508380960000006426707231807650442_" x="0" y="8.6" width="142.9" height="105.4"/>
								</defs>
								<clipPath id="SVGID_00000114778691077006626920000001442452227942372246_">
									<use xlink:href="#SVGID_00000031886491861508380960000006426707231807650442_"  style="overflow:visible;"/>
								</clipPath>
								<g id="Gruppe_13" style="clip-path:url(#SVGID_00000114778691077006626920000001442452227942372246_);">
									<g class="st7">
										<path class="st8" d="M35.9,32.7c-0.9-1.6-2.1-2.8-3.7-3.6c-1.6-0.8-3.5-1.3-5.7-1.3c-3.8,0-6.8,1.2-9,3.7
											c-2.3,2.5-3.4,5.8-3.4,9.9c0,4.4,1.2,7.8,3.6,10.3s5.7,3.7,9.8,3.7c2.9,0,5.3-0.7,7.2-2.2c2-1.5,3.4-3.5,4.3-6.3H24.3
											v-8.6h25.3v10.8c-0.9,2.9-2.3,5.6-4.4,8.1c-2.1,2.5-4.7,4.5-7.9,6.1c-3.2,1.5-6.8,2.3-10.7,2.3c-4.7,0-8.9-1-12.6-3.1
											c-3.7-2.1-6.6-4.9-8.6-8.6C3.3,50.2,2.3,46,2.3,41.3s1-8.9,3.1-12.6s4.9-6.6,8.6-8.6S21.9,17,26.6,17
											c5.6,0.1,10.4,1.5,14.4,4.2c3.9,2.8,6.5,6.6,7.8,11.5H35.9z"/>
										<path class="st8" d="M90.5,40.6c-1.3,2.3-3.2,4.1-5.8,5.5c-2.6,1.4-5.9,2.1-9.8,2.1h-7.2v17.1H56V17.6h18.8
											c3.8,0,7,0.7,9.7,2c2.6,1.3,4.6,3.1,5.9,5.4s2,5,2,8C92.4,35.8,91.8,38.3,90.5,40.6z M78.9,37.4c1.1-1,1.6-2.5,1.6-4.4
											c0-1.9-0.5-3.4-1.6-4.4s-2.7-1.6-5-1.6h-6.3v12H74C76.2,39,77.9,38.5,78.9,37.4z"/>
										<path class="st8" d="M132.8,17.6v9.3h-12.6v38.4h-11.6V26.9H95.9v-9.3H132.8z"/>
									</g>
								</g>
							</g>
						</g>
					</g>
				</g>
				<g id="Gruppe_18" transform="translate(109.075 72.128)">
					<g id="Gruppe_17" transform="translate(0 0)">
						<g>
							<g>
								<defs>
									<rect id="SVGID_00000123428711648399251430000000107394714440245647_" x="-109" y="23" width="333.2" height="32.7"/>
								</defs>
								<clipPath id="SVGID_00000054239979152632953230000014132665091290653880_">
									<use xlink:href="#SVGID_00000123428711648399251430000000107394714440245647_"  style="overflow:visible;"/>
								</clipPath>
								<g id="Gruppe_maskieren_16" style="clip-path:url(#SVGID_00000054239979152632953230000014132665091290653880_);">
									<g class="st7">
										<path class="st10" d="M-100.7,29.4c-0.2-0.4-0.4-0.8-0.8-1c-0.4-0.2-0.8-0.2-1.4-0.2c-0.8,0-1.6,0.2-2,0.8
											c-0.6,0.6-0.8,1.4-0.8,2.4c0,1,0.2,1.8,0.8,2.4c0.6,0.6,1.4,0.8,2.4,0.8c0.6,0,1.2-0.2,1.8-0.6c0.6-0.4,0.8-0.8,1-1.4
											h-3.6v-2h5.9v2.6c-0.2,0.6-0.6,1.4-1,2c-0.6,0.6-1.2,1-2,1.4c-0.8,0.4-1.6,0.4-2.6,0.4c-1.2,0-2-0.2-3-0.8
											c-0.8-0.4-1.6-1.2-2-2c-0.4-0.8-0.6-1.8-0.6-2.8c0-1,0.2-2,0.8-3s1.2-1.6,2-2s1.8-0.8,3-0.8c1.4,0,2.4,0.4,3.4,1
											s1.6,1.6,1.8,2.8H-100.7z"/>
										<path class="st10" d="M-92,28.4c0.4-0.2,1-0.4,1.6-0.4v2.8h-0.8c-0.8,0-1.2,0.2-1.6,0.6c-0.4,0.2-0.4,0.8-0.4,1.4v4.2
											h-2.8V28h2.8v1.4C-93,29-92.6,28.8-92,28.4z"/>
										<path class="st10" d="M-80.9,33.1H-87c0,0.6,0.2,1,0.6,1.2c0.2,0.4,0.6,0.6,1.2,0.6s1.2-0.2,1.4-0.8h3
											c-0.2,0.6-0.4,1.2-0.8,1.6c-0.4,0.4-0.8,0.8-1.4,1.2c-0.6,0.2-1.2,0.4-2,0.4c-0.8,0-1.6-0.2-2.4-0.6
											c-0.8-0.4-1.4-1.2-1.8-1.8c-0.4-0.8-0.6-1.6-0.6-2.4c0-1,0.2-1.8,0.6-2.4s1-1.2,1.6-1.6c0.6-0.4,1.4-0.6,2.4-0.6
											c0.8,0,1.6,0.2,2.4,0.6c0.8,0.4,1.2,0.8,1.6,1.6c0.4,0.6,0.6,1.4,0.6,2.4C-80.9,32.5-80.9,32.9-80.9,33.1z M-83.7,31.5
											c0-0.4-0.2-0.8-0.4-1.2c-0.2-0.4-0.8-0.2-1.2-0.2s-0.8,0.2-1.2,0.4c-0.4,0.2-0.6,0.6-0.6,1.2h3.4V31.5z"/>
										<path class="st10" d="M-71.2,33.1h-6.1c0,0.6,0.2,1,0.6,1.2c0.4,0.4,0.8,0.6,1.2,0.6c0.6,0,1.2-0.2,1.4-0.8h2.8
											c-0.2,0.6-0.4,1.2-0.8,1.6c-0.4,0.4-0.8,0.8-1.4,1.2c-0.6,0.2-1.2,0.4-2,0.4s-1.6-0.2-2.4-0.6c-0.8-0.4-1-1.2-1.4-1.8
											c-0.4-0.6-0.6-1.6-0.6-2.4c0-1,0.2-1.8,0.6-2.4c0.4-0.6,1-1.2,1.6-1.6c0.6-0.4,1.4-0.6,2.4-0.6c0.8,0,1.6,0.2,2.4,0.6
											c0.8,0.4,1.2,0.8,1.6,1.6c0.4,0.6,0.6,1.4,0.6,2.4C-71,32.5-71.2,32.9-71.2,33.1z M-73.8,31.5c0-0.4-0.2-0.8-0.4-1.2
											c-0.2-0.4-0.8-0.4-1.2-0.4s-0.8,0.2-1.2,0.4c-0.4,0.2-0.6,0.6-0.6,1.2C-77.1,31.5-73.8,31.5-73.8,31.5z"/>
										<path class="st10" d="M-61.9,29c0.6,0.6,1,1.6,1,2.8v5.1h-2.6v-4.8c0-0.6-0.2-1-0.4-1.4c-0.4-0.4-0.8-0.4-1.2-0.4
											c-0.6,0-1,0.2-1.2,0.4c-0.4,0.4-0.4,0.8-0.4,1.4v4.8h-2.8V28h2.8v1.2c0.2-0.4,0.6-0.8,1.2-1c0.4-0.2,1-0.4,1.6-0.4
											C-63.3,28-62.5,28.4-61.9,29z"/>
										<path class="st10" d="M-47.6,31.1c-0.2,0.6-0.8,1-1.4,1.4c-0.6,0.2-1.4,0.4-2.2,0.4h-1.6v4h-2.8V25.8h4.4
											c0.8,0,1.6,0.2,2.2,0.4c0.6,0.4,1.2,0.8,1.4,1.4c0.4,0.6,0.4,1.2,0.4,1.8C-47.2,30-47.2,30.5-47.6,31.1z M-50.2,30.3
											c0.2-0.2,0.4-0.6,0.4-1s-0.2-0.8-0.4-1c-0.2-0.2-0.6-0.4-1.2-0.4h-1.4v2.8h1.4C-51,30.7-50.6,30.5-50.2,30.3z"/>
										<path class="st10" d="M-41.9,28.4c0.4-0.2,1-0.4,1.6-0.4v2.8h-0.8c-0.6,0-1.2,0.2-1.6,0.4s-0.6,0.8-0.6,1.6v4.2h-2.4V28
											h2.8v1.4C-42.7,29-42.3,28.8-41.9,28.4z"/>
										<path class="st10" d="M-37.3,36.5c-0.6-0.4-1.2-1-1.6-1.6s-0.6-1.6-0.6-2.4c0-1,0.2-1.8,0.6-2.4s1-1.2,1.6-1.6
											c0.8-0.4,1.4-0.6,2.4-0.6s1.6,0.2,2.4,0.6c0.8,0.4,1.2,1,1.6,1.6s0.6,1.6,0.6,2.4c0,1-0.2,1.8-0.6,2.4s-1,1.2-1.6,1.6
											c-0.6,0.4-1.6,0.6-2.4,0.6S-36.5,36.9-37.3,36.5z M-33.6,34.1c0.4-0.4,0.6-1,0.6-1.6c0-0.8-0.2-1.2-0.6-1.6
											c-0.4-0.4-0.8-0.6-1.4-0.6s-1,0.2-1.4,0.6c-0.4,0.4-0.6,1-0.6,1.6c0,0.8,0.2,1.2,0.6,1.6c0.4,0.4,0.8,0.6,1.4,0.6
											C-34.3,34.7-34,34.5-33.6,34.1z"/>
										<path class="st10" d="M-25,28.4c0.4-0.2,1-0.4,1.6-0.4c0.8,0,1.4,0.2,2,0.6s1,1,1.4,1.6s0.6,1.4,0.6,2.4
											c0,1-0.2,1.8-0.6,2.4c-0.4,0.6-0.8,1.2-1.4,1.6c-0.6,0.4-1.2,0.6-2,0.6c-0.6,0-1.2-0.2-1.6-0.4c-0.4-0.2-0.8-0.6-1.2-1
											v5.5H-29V28.2h2.8v1.2C-25.8,29-25.4,28.6-25,28.4z M-22.9,30.9c-0.4-0.4-0.8-0.6-1.4-0.6c-0.6,0-1,0.2-1.4,0.6
											c-0.4,0.4-0.6,1-0.6,1.6c0,0.6,0.2,1.2,0.6,1.6c0.4,0.4,0.8,0.6,1.4,0.6c0.6,0,1-0.2,1.4-0.6c0.4-0.4,0.6-1,0.6-1.6
											C-22.3,31.7-22.5,31.3-22.9,30.9z"/>
										<path class="st10" d="M-9.8,33.1h-6.1c0,0.6,0.2,1,0.6,1.2c0.2,0.4,0.6,0.6,1,0.6c0.6,0,1.2-0.2,1.4-0.8h3
											c-0.2,0.6-0.4,1.2-0.8,1.6c-0.4,0.4-0.8,0.8-1.4,1.2c-0.6,0.2-1.2,0.4-2,0.4s-1.6-0.2-2.4-0.6c-0.6-0.4-1.2-1-1.6-1.6
											c-0.4-0.6-0.6-1.6-0.6-2.4c0-1,0.2-1.8,0.6-2.4c0.4-0.6,1-1.2,1.6-1.6c0.6-0.4,1.4-0.6,2.4-0.6c0.8,0,1.6,0.2,2.4,0.6
											c0.8,0.4,1.2,0.8,1.6,1.6c0.4,0.6,0.6,1.4,0.6,2.4C-9.8,32.5-9.8,32.9-9.8,33.1z M-12.6,31.5c0-0.4-0.2-0.8-0.4-1.2
											c-0.2-0.4-0.8-0.4-1.2-0.4c-0.4,0-0.8,0.2-1.2,0.4c-0.4,0.4-0.6,0.8-0.6,1.2H-12.6z"/>
										<path class="st10" d="M-4.5,28.4c0.4-0.2,1-0.4,1.6-0.4v2.8h-0.8c-0.6,0-1.2,0.2-1.6,0.4c-0.4,0.2-0.6,0.8-0.6,1.6v4.2
											h-2.8V28h2.8v1.4C-5.2,29-4.8,28.8-4.5,28.4z"/>
										<path class="st10" d="M3.3,34.5v2.4H1.9c-1,0-1.8-0.2-2.4-0.8c-0.6-0.4-0.8-1.2-0.8-2.4v-3.6h-1V28h1v-2.2h2.8V28h1.8v2.2
											H1.5v3.6c0,0.2,0,0.4,0.2,0.6s0.4,0.2,0.6,0.2C2.3,34.5,3.3,34.5,3.3,34.5z"/>
										<path class="st10" d="M14,28L8.4,41h-3l2-4.6L3.9,28h3l2,5.5l2-5.5H14z"/>
										<path class="st10" d="M26.2,25.8V28h-3v8.9h-2.8V28h-2.8v-2.2H26.2z"/>
										<path class="st10" d="M35.9,33.1h-6.1c0,0.6,0.2,1,0.6,1.2c0.2,0.4,0.6,0.6,1,0.6c0.6,0,1.2-0.2,1.4-0.8h3
											c-0.2,0.6-0.4,1.2-0.8,1.6c-0.4,0.4-0.8,0.8-1.4,1.2c-0.6,0.2-1.2,0.4-2,0.4s-1.6-0.2-2.4-0.6c-0.6-0.6-1.2-1.2-1.6-1.8
											S27,33.3,27,32.5c0-1,0.2-1.8,0.6-2.4s1-1.2,1.6-1.6s1.4-0.6,2.4-0.6c0.8,0,1.6,0.2,2.4,0.6c0.8,0.4,1.2,0.8,1.6,1.6
											c0.4,0.6,0.6,1.4,0.6,2.4C35.9,32.5,35.9,32.9,35.9,33.1z M33.2,31.5c0-0.4-0.2-0.8-0.4-1.2c-0.2-0.4-0.8-0.2-1.2-0.2
											s-0.8,0.2-1.2,0.4c-0.4,0.2-0.6,0.6-0.6,1.2h3.4V31.5z"/>
										<path class="st10" d="M37.3,30.1c0.4-0.6,1-1.2,1.6-1.6c0.6-0.4,1.4-0.6,2.4-0.6c1.2,0,2,0.2,2.8,0.8s1.2,1.4,1.4,2.4h-3
											c-0.2-0.6-0.8-1-1.4-1c-0.4,0-1,0.2-1.2,0.6c-0.2,0.4-0.4,1-0.4,1.8c0,0.8,0.2,1.2,0.4,1.6c0.2,0.4,0.6,0.6,1.2,0.6
											c0.8,0,1.2-0.4,1.4-1h3c-0.2,1-0.8,1.8-1.4,2.4c-0.8,0.6-1.6,0.8-2.8,0.8c-0.8,0-1.6-0.2-2.4-0.6
											c-0.8-0.4-1.2-0.8-1.6-1.4s-0.6-1.6-0.6-2.4C36.7,31.5,36.9,30.7,37.3,30.1z"/>
										<path class="st10" d="M54.7,29c0.6,0.6,1,1.6,1,2.8v5.1H53v-4.8c0-0.6-0.2-1-0.4-1.4c-0.4-0.4-0.8-0.4-1.2-0.4
											s-1,0.2-1.2,0.4c-0.4,0.4-0.4,0.8-0.4,1.4v4.8H47V25.2h2.8v4.2c0.2-0.4,0.6-0.8,1.2-1c0.6-0.2,1-0.4,1.6-0.4
											C53.4,28,54.2,28.4,54.7,29z"/>
										<path class="st10" d="M65.4,29c0.6,0.6,1,1.6,1,2.8v5.1h-2.8v-4.8c0-0.6-0.2-1-0.4-1.4c-0.4-0.4-0.8-0.4-1.2-0.4
											c-0.6,0-1,0.2-1.2,0.4c-0.4,0.4-0.4,0.8-0.4,1.4v4.8h-2.8V28h2.8v1.2c0.2-0.4,0.6-0.8,1.2-1c0.4-0.2,1-0.4,1.6-0.4
											C64.1,28,64.8,28.4,65.4,29z"/>
										<path class="st10" d="M70,36.5c-0.8-0.4-1.2-1-1.6-1.6c-0.4-0.6-0.6-1.6-0.6-2.4c0-1,0.2-1.8,0.6-2.4
											c0.4-0.6,1-1.2,1.6-1.6c0.8-0.4,1.4-0.6,2.4-0.6s1.6,0.2,2.4,0.6c0.8,0.4,1.2,1,1.6,1.6c0.4,0.6,0.6,1.6,0.6,2.4
											c0,1-0.2,1.8-0.6,2.4c-0.4,0.6-1,1.2-1.6,1.6c-0.6,0.4-1.6,0.6-2.4,0.6C71.4,37.1,70.6,36.9,70,36.5z M73.6,34.1
											c0.4-0.4,0.6-1,0.6-1.6c0-0.8-0.2-1.2-0.6-1.6c-0.4-0.4-0.8-0.6-1.4-0.6c-0.6,0-1,0.2-1.4,0.6c-0.4,0.4-0.6,1-0.6,1.6
											c0,0.8,0.2,1.2,0.6,1.6c0.4,0.4,0.8,0.6,1.4,0.6C72.8,34.7,73.4,34.5,73.6,34.1z"/>
										<path class="st10" d="M81.1,25.2v11.7h-2.8V25.2H81.1z"/>
										<path class="st10" d="M84.6,36.5c-0.6-0.4-1.2-1-1.6-1.6s-0.6-1.6-0.6-2.4c0-1,0.2-1.8,0.6-2.4c0.4-0.6,1-1.2,1.6-1.6
											C85.4,28.2,86,28,87,28s1.6,0.2,2.4,0.6c0.8,0.4,1.2,1,1.6,1.6c0.4,0.6,0.6,1.6,0.6,2.4c0,1-0.2,1.8-0.6,2.4
											c-0.4,0.6-1,1.2-1.6,1.6c-0.6,0.4-1.4,0.6-2.4,0.6C86.2,37.1,85.4,36.9,84.6,36.5z M88.4,34.1c0.4-0.4,0.6-1,0.6-1.6
											c0-0.8-0.2-1.2-0.6-1.6c-0.4-0.4-0.8-0.6-1.4-0.6c-0.6,0-1,0.2-1.4,0.6c-0.4,0.4-0.6,1-0.6,1.6c0,0.8,0.2,1.2,0.6,1.6
											c0.4,0.4,0.8,0.6,1.4,0.6C87.6,34.7,88,34.5,88.4,34.1z"/>
										<path class="st10" d="M98.1,28.4c0.4,0.2,0.8,0.6,1,1v-1.2h2.8v8.7c0,0.8-0.2,1.6-0.4,2.2c-0.4,0.6-0.8,1.2-1.4,1.6
											c-0.6,0.4-1.4,0.6-2.4,0.6c-1.4,0-2.4-0.4-3.2-1c-1-0.6-1.6-1.4-1.6-2.4h2.8c0,0.4,0.2,0.6,0.6,0.8c0.4,0.2,0.6,0.2,1,0.2
											c0.6,0,1-0.2,1.4-0.4c0.4-0.4,0.6-0.8,0.6-1.6v-1.2c-0.2,0.4-0.6,0.8-1.2,1c-0.6,0.2-1,0.4-1.6,0.4c-0.8,0-1.4-0.2-2-0.6
											c-0.6-0.4-1-1-1.4-1.6s-0.6-1.6-0.6-2.4c0-1,0.2-1.8,0.6-2.4c0.4-0.6,0.8-1.2,1.4-1.6c0.6-0.4,1.2-0.6,2-0.6
											C97.1,28,97.7,28,98.1,28.4z M98.7,30.9c-0.4-0.4-0.8-0.6-1.4-0.6c-0.6,0-1,0.2-1.4,0.6c-0.4,0.4-0.6,1-0.6,1.6
											c0,0.6,0.2,1.2,0.6,1.6c0.4,0.4,0.8,0.6,1.4,0.6c0.6,0,1-0.2,1.4-0.6c0.4-0.4,0.6-1,0.6-1.6
											C99.3,31.7,99.1,31.3,98.7,30.9z"/>
										<path class="st10" d="M104,26.8c-0.4-0.2-0.4-0.6-0.4-1s0.2-0.8,0.4-1c0.4-0.2,0.6-0.4,1.2-0.4c0.4,0,0.8,0.2,1.2,0.4
											s0.4,0.6,0.4,1s-0.2,0.8-0.4,1c-0.4,0.2-0.6,0.4-1.2,0.4C104.8,27.2,104.4,27,104,26.8z M106.6,28v8.9h-2.8V28H106.6z"/>
										<path class="st10" d="M116.9,33.1h-6.1c0,0.6,0.2,1,0.6,1.2c0.4,0.2,0.8,0.4,1.2,0.4c0.6,0,1.2-0.2,1.4-0.8h3
											c-0.2,0.6-0.4,1.2-0.8,1.6c-0.4,0.4-0.8,0.8-1.4,1.2c-0.6,0.2-1.2,0.4-2,0.4s-1.6-0.2-2.4-0.6c-0.6-0.4-1.2-1-1.6-1.6
											s-0.6-1.6-0.6-2.4c0-1,0.2-1.8,0.6-2.4s1-1.2,1.6-1.6c0.6-0.4,1.4-0.6,2.4-0.6c0.8,0,1.6,0.2,2.4,0.6
											c0.8,0.4,1.2,0.8,1.6,1.6c0.4,0.6,0.6,1.4,0.6,2.4C116.9,32.5,116.9,32.9,116.9,33.1z M114.1,31.5c0-0.4-0.2-0.8-0.4-1.2
											c-0.2-0.4-0.8-0.4-1.2-0.4s-0.8,0.2-1.2,0.4c-0.4,0.2-0.6,0.6-0.6,1.2C110.8,31.5,114.1,31.5,114.1,31.5z"/>
										<path class="st10" d="M119.9,36.7c-0.6-0.2-1-0.6-1.4-1c-0.4-0.4-0.6-1-0.6-1.6h2.8c0,0.4,0.2,0.6,0.4,0.8s0.6,0.2,1,0.2
											s0.6,0,0.8-0.2s0.2-0.4,0.2-0.6c0-0.2-0.2-0.4-0.4-0.6s-0.6-0.2-1.2-0.4c-0.6-0.2-1.2-0.4-1.6-0.4
											c-0.4-0.2-0.8-0.4-1.2-0.8c-0.4-0.4-0.4-0.8-0.4-1.4s0.2-1,0.4-1.4s0.6-0.8,1.2-1c0.6-0.2,1.2-0.4,2-0.4
											c1.2,0,2,0.2,2.6,0.8s1,1.2,1.2,2.2h-2.6c0-0.4-0.2-0.6-0.4-0.8c-0.2-0.2-0.6-0.2-1-0.2s-0.6,0-0.8,0.2
											c-0.2,0.2-0.2,0.2-0.2,0.4s0.2,0.4,0.4,0.6c0.2,0.2,0.6,0.2,1.2,0.4c0.6,0.2,1.2,0.4,1.6,0.6c0.4,0.2,0.8,0.4,1,0.8
											c0.4,0.4,0.4,0.8,0.4,1.4c0,0.6-0.2,1-0.4,1.4c-0.2,0.4-0.8,0.8-1.2,1c-0.4,0.2-1.2,0.4-2,0.4
											C121.1,37.1,120.5,36.9,119.9,36.7z"/>
									</g>
								</g>
							</g>
						</g>
					</g>
				</g>
			</g>
		</g>
	</g>
</g>
</svg>
