<svg xmlns="http://www.w3.org/2000/svg" width="550.024" height="562.314" viewBox="0 0 550.024 562.314">
  <g id="Gruppe_8" data-name="Gruppe 8" transform="translate(-629.488 -3004.843)">
    <path id="Pfad_40" data-name="Pfad 40" d="M453.436,465.735c-1.8,1.811-3.671,3.514-5.525,5.254l2.85,2.858c1.855-1.748,3.728-3.451,5.532-5.255s3.513-3.683,5.26-5.537L458.7,460.2c-1.74,1.854-3.444,3.721-5.26,5.531" transform="translate(629.488 3004.843)" fill="#4baa41"/>
    <path id="Pfad_41" data-name="Pfad 41" d="M85.856,448.794c-76.484-91.9-76.465-226.348.013-318.256l-2.858-2.861C4.976,221.172,4.963,358.156,82.992,451.651l.019-.013Z" transform="translate(629.488 3004.843)" fill="#4baa41"/>
    <path id="Pfad_42" data-name="Pfad 42" d="M277.339,543.207a253.793,253.793,0,0,1-162.394-58.673l-.554-.463,3.794-3.8.462.386a248.476,248.476,0,0,0,158.69,57.2h.014A248.531,248.531,0,0,0,436.06,480.644l.463-.386,3.792,3.8-.554.462a253.837,253.837,0,0,1-162.408,58.686ZM116.345,483.982a252.5,252.5,0,0,0,160.994,57.906h.014a252.535,252.535,0,0,0,161.009-57.919l-1.922-1.926A249.879,249.879,0,0,1,277.352,539.18h-.015a249.8,249.8,0,0,1-159.07-57.124Z" transform="translate(629.488 3004.843)" fill="#4baa41"/>
    <path id="Pfad_43" data-name="Pfad 43" d="M447.917,108.313c1.848,1.741,3.715,3.457,5.525,5.267s3.52,3.671,5.261,5.519l2.85-2.847.007-.007c-1.741-1.848-3.457-3.712-5.26-5.522s-3.678-3.523-5.526-5.267l-.006.006Z" transform="translate(629.488 3004.843)" fill="#4baa41"/>
    <path id="Pfad_44" data-name="Pfad 44" d="M439.358,95.282c-93.495-78.029-230.47-78.016-323.971.019l2.857,2.86c91.912-76.474,226.345-76.493,318.25-.015l2.845-2.845Z" transform="translate(629.488 3004.843)" fill="#4baa41"/>
    <path id="Pfad_45" data-name="Pfad 45" d="M468.87,130.522c76.484,91.9,76.465,226.342-.013,318.253l2.857,2.858c78.042-93.495,78.055-230.48.02-323.974l-.02.019Z" transform="translate(629.488 3004.843)" fill="#4baa41"/>
    <path id="Pfad_46" data-name="Pfad 46" d="M277.367,561.655c-149.98,0-272-122.017-272-272s122.017-272,272-272,272,122.017,272,272-122.017,272-272,272m0-535c-145.019,0-263,117.981-263,263s117.981,263,263,263,263-117.981,263-263-117.981-263-263-263" transform="translate(629.488 3004.843)" fill="#4baa41"/>
    <path id="Pfad_47" data-name="Pfad 47" d="M277.367,562.314C127.024,562.314,4.71,440,4.71,289.657S127.024,17,277.367,17,550.024,139.313,550.024,289.657,427.71,562.314,277.367,562.314m0-544C127.752,18.319,6.03,140.041,6.03,289.657S127.752,560.995,277.367,560.995,548.705,439.273,548.705,289.657,426.983,18.319,277.367,18.319m0,535c-145.382,0-263.66-118.278-263.66-263.66S131.985,26,277.367,26s263.66,118.277,263.66,263.66-118.277,263.66-263.66,263.66m0-526C132.712,27.316,15.027,145,15.027,289.657S132.712,552,277.367,552,539.708,434.312,539.708,289.657,422.022,27.316,277.367,27.316" transform="translate(629.488 3004.843)" fill="#4baa41"/>
    <path id="Pfad_48" data-name="Pfad 48" d="M115.368,484.027c93.5,78.036,230.476,78.023,323.971-.013l-2.857-2.863c-91.912,76.484-226.351,76.5-318.257.013l-2.844,2.85Z" transform="translate(630 3004.843)" fill="#4baa41"/>
    <rect id="Rechteck_11" data-name="Rechteck 11" width="550.024" height="562.314" transform="translate(629.488 3004.843)" fill="none"/>
  </g>
</svg>
